<?xml version="1.0" encoding="UTF-8" standalone="no"?>
<!-- Created with Inkscape (http://www.inkscape.org/) -->

<svg
   version="1.1"
   id="svg1"
   width="1024"
   height="1024"
   viewBox="0 0 1024 1024"
   sodipodi:docname="logo.svg"
   inkscape:version="1.3.2 (091e20e, 2023-11-25, custom)"
   xmlns:inkscape="http://www.inkscape.org/namespaces/inkscape"
   xmlns:sodipodi="http://sodipodi.sourceforge.net/DTD/sodipodi-0.dtd"
   xmlns="http://www.w3.org/2000/svg"
   xmlns:svg="http://www.w3.org/2000/svg">
  <defs
     id="defs1">
    <inkscape:path-effect
       effect="fillet_chamfer"
       id="path-effect1"
       is_visible="true"
       lpeversion="1"
       nodesatellites_param="F,0,0,1,0,0,0,1 @ F,0,0,1,0,0,0,1 @ F,0,0,1,0,0,0,1 @ F,0,0,1,0,0,0,1 @ F,0,0,1,0,0,0,1 @ F,0,0,1,0,0,0,1 @ F,0,0,1,0,0,0,1 @ F,0,0,1,0,0,0,1 @ F,0,0,1,0,0,0,1 @ F,0,0,1,0,0,0,1 @ F,0,0,1,0,0,0,1 @ F,0,0,1,0,0,0,1 @ F,0,0,1,0,0,0,1 @ F,0,0,1,0,0,0,1 @ F,0,0,1,0,0,0,1 @ F,0,0,1,0,0,0,1 @ F,0,0,1,0,0,0,1 @ F,0,0,1,0,0,0,1 @ F,0,0,1,0,0,0,1 @ F,0,0,1,0,0,0,1 @ F,0,0,1,0,0,0,1 @ F,0,0,1,0,0,0,1 @ F,0,0,1,0,0,0,1 @ F,0,0,1,0,0,0,1 @ F,0,0,1,0,0,0,1 @ F,0,0,1,0,0,0,1 @ F,0,0,1,0,0,0,1 @ F,0,0,1,0,0,0,1 @ F,0,0,1,0,0,0,1 @ F,0,0,1,0,0,0,1 @ F,0,0,1,0,0,0,1 @ F,0,0,1,0,0,0,1 @ F,0,0,1,0,0,0,1 @ F,0,0,1,0,0,0,1 @ F,0,0,1,0,0,0,1 @ F,0,0,1,0,0,0,1 @ F,0,0,1,0,0,0,1 @ F,0,0,1,0,0,0,1 @ F,0,0,1,0,0,0,1 @ F,0,0,1,0,0,0,1 @ F,0,0,1,0,0,0,1 @ F,0,0,1,0,0,0,1 @ F,0,0,1,0,0,0,1 @ F,0,0,1,0,0,0,1 @ F,0,0,1,0,0,0,1 @ F,0,0,1,0,0,0,1 @ F,0,0,1,0,0,0,1 @ F,0,0,1,0,0,0,1 @ F,0,0,1,0,0,0,1 @ F,0,0,1,0,0,0,1 @ F,0,0,1,0,0,0,1 @ F,0,0,1,0,0,0,1 @ F,0,0,1,0,0,0,1 @ F,0,0,1,0,0,0,1 @ F,0,0,1,0,0,0,1 @ F,0,0,1,0,0,0,1 @ F,0,0,1,0,0,0,1 @ F,0,0,1,0,0,0,1 @ F,0,0,1,0,0,0,1 @ F,0,0,1,0,0,0,1 @ F,0,0,1,0,0,0,1 @ F,0,0,1,0,0,0,1 @ F,0,0,1,0,0,0,1 @ F,0,0,1,0,0,0,1 @ F,0,0,1,0,0,0,1 @ F,0,0,1,0,0,0,1 @ F,0,0,1,0,0,0,1 @ F,0,0,1,0,0,0,1 @ F,0,0,1,0,0,0,1 @ F,0,0,1,0,0,0,1 @ F,0,0,1,0,0,0,1 @ F,0,0,1,0,0,0,1 @ F,0,0,1,0,0,0,1 @ F,0,0,1,0,0,0,1 @ F,0,0,1,0,0,0,1 @ F,0,0,1,0,0,0,1 @ F,0,0,1,0,0,0,1 @ F,0,0,1,0,0,0,1 @ F,0,0,1,0,0,0,1 @ F,0,0,1,0,0,0,1 @ F,0,0,1,0,0,0,1 @ F,0,0,1,0,0,0,1 @ F,0,0,1,0,0,0,1 @ F,0,0,1,0,0,0,1 @ F,0,0,1,0,0,0,1 @ F,0,0,1,0,0,0,1 @ F,0,0,1,0,0,0,1 @ F,0,0,1,0,0,0,1 @ F,0,0,1,0,0,0,1 @ F,0,0,1,0,0,0,1 @ F,0,0,1,0,0,0,1 @ F,0,0,1,0,0,0,1 @ F,0,0,1,0,0,0,1 @ F,0,0,1,0,0,0,1 @ F,0,0,1,0,0,0,1 @ F,0,0,1,0,0,0,1 @ F,0,0,1,0,0,0,1 @ F,0,0,1,0,0,0,1 @ F,0,0,1,0,0,0,1 @ F,0,0,1,0,0,0,1 @ F,0,0,1,0,0,0,1 @ F,0,0,1,0,0,0,1 @ F,0,0,1,0,0,0,1 @ F,0,0,1,0,0,0,1 @ F,0,0,1,0,0,0,1 @ F,0,0,1,0,0,0,1 @ F,0,0,1,0,0,0,1 @ F,0,0,1,0,0,0,1 @ F,0,0,1,0,0,0,1 @ F,0,0,1,0,0,0,1 @ F,0,0,1,0,0,0,1 @ F,0,0,1,0,0,0,1 @ F,0,0,1,0,0,0,1 @ F,0,0,1,0,0,0,1 @ F,0,0,1,0,0,0,1 @ F,0,0,1,0,0,0,1 @ F,0,0,1,0,0,0,1 @ F,0,0,1,0,0,0,1 @ F,0,0,1,0,0,0,1 @ F,0,0,1,0,0,0,1 @ F,0,0,1,0,0,0,1 @ F,0,0,1,0,0,0,1 @ F,0,0,1,0,0,0,1 @ F,0,0,1,0,0,0,1 @ F,0,0,1,0,0,0,1 @ F,0,0,1,0,0,0,1 @ F,0,0,1,0,0,0,1 @ F,0,0,1,0,0,0,1 @ F,0,0,1,0,0,0,1 @ F,0,0,1,0,0,0,1 @ F,0,0,1,0,0,0,1 @ F,0,0,1,0,0,0,1 @ F,0,0,1,0,0,0,1 @ F,0,0,1,0,0,0,1 @ F,0,0,1,0,0,0,1 @ F,0,0,1,0,0,0,1 @ F,0,0,1,0,0,0,1 @ F,0,0,1,0,0,0,1 @ F,0,0,1,0,0,0,1 @ F,0,0,1,0,0,0,1 @ F,0,0,1,0,0,0,1 @ F,0,0,1,0,0,0,1 @ F,0,0,1,0,0,0,1 @ F,0,0,1,0,0,0,1 @ F,0,0,1,0,0,0,1 @ F,0,0,1,0,0,0,1 @ F,0,0,1,0,0,0,1 @ F,0,0,1,0,0,0,1 @ F,0,0,1,0,0,0,1 @ F,0,0,1,0,0,0,1 @ F,0,0,1,0,0,0,1 @ F,0,0,1,0,0,0,1 @ F,0,0,1,0,0,0,1 @ F,0,0,1,0,0,0,1 @ F,0,0,1,0,0,0,1 @ F,0,0,1,0,0,0,1 @ F,0,0,1,0,0,0,1 @ F,0,0,1,0,0,0,1 @ F,0,0,1,0,0,0,1 @ F,0,0,1,0,0,0,1 @ F,0,0,1,0,0,0,1 @ F,0,0,1,0,0,0,1 @ F,0,0,1,0,0,0,1 @ F,0,0,1,0,0,0,1 @ F,0,0,1,0,0,0,1 @ F,0,0,1,0,0,0,1 @ F,0,0,1,0,0,0,1 @ F,0,0,1,0,0,0,1 @ F,0,0,1,0,0,0,1 @ F,0,0,1,0,0,0,1 @ F,0,0,1,0,0,0,1 @ F,0,0,1,0,0,0,1 @ F,0,0,1,0,0,0,1 @ F,0,0,1,0,0,0,1 @ F,0,0,1,0,0,0,1 @ F,0,0,1,0,0,0,1 @ F,0,0,1,0,0,0,1 @ F,0,0,1,0,0,0,1 @ F,0,0,1,0,0,0,1 @ F,0,0,1,0,0,0,1 @ F,0,0,1,0,0,0,1 @ F,0,0,1,0,0,0,1 @ F,0,0,1,0,0,0,1 @ F,0,0,1,0,0,0,1 @ F,0,0,1,0,0,0,1 @ F,0,0,1,0,0,0,1 @ F,0,0,1,0,0,0,1 @ F,0,0,1,0,0,0,1 @ F,0,0,1,0,0,0,1 @ F,0,0,1,0,0,0,1 @ F,0,0,1,0,0,0,1 @ F,0,0,1,0,0,0,1 @ F,0,0,1,0,0,0,1 @ F,0,0,1,0,0,0,1 @ F,0,0,1,0,0,0,1 @ F,0,0,1,0,0,0,1 @ F,0,0,1,0,0,0,1 @ F,0,0,1,0,0,0,1 @ F,0,0,1,0,0,0,1 @ F,0,0,1,0,0,0,1 @ F,0,0,1,0,0,0,1 @ F,0,0,1,0,0,0,1 @ F,0,0,1,0,0,0,1 @ F,0,0,1,0,0,0,1 @ F,0,0,1,0,0,0,1 @ F,0,0,1,0,0,0,1 @ F,0,0,1,0,0,0,1 @ F,0,0,1,0,0,0,1 @ F,0,0,1,0,0,0,1 @ F,0,0,1,0,0,0,1 @ F,0,0,1,0,0,0,1 @ F,0,0,1,0,0,0,1 @ F,0,0,1,0,0,0,1 @ F,0,0,1,0,0,0,1 @ F,0,0,1,0,0,0,1 @ F,0,0,1,0,0,0,1 @ F,0,0,1,0,0,0,1 @ F,0,0,1,0,0,0,1 @ F,0,0,1,0,0,0,1 @ F,0,0,1,0,0,0,1 @ F,0,0,1,0,0,0,1 @ F,0,0,1,0,0,0,1 @ F,0,0,1,0,0,0,1 @ F,0,0,1,0,0,0,1 @ F,0,0,1,0,0,0,1 @ F,0,0,1,0,0,0,1 @ F,0,0,1,0,0,0,1 @ F,0,0,1,0,0,0,1 @ F,0,0,1,0,0,0,1 @ F,0,0,1,0,0,0,1 @ F,0,0,1,0,0,0,1 @ F,0,0,1,0,0,0,1 @ F,0,0,1,0,0,0,1 @ F,0,0,1,0,0,0,1 @ F,0,0,1,0,0,0,1 @ F,0,0,1,0,0,0,1 @ F,0,0,1,0,0,0,1 @ F,0,0,1,0,0,0,1 @ F,0,0,1,0,0,0,1 @ F,0,0,1,0,0,0,1 @ F,0,0,1,0,0,0,1 @ F,0,0,1,0,0,0,1 @ F,0,0,1,0,0,0,1 @ F,0,0,1,0,0,0,1 @ F,0,0,1,0,0,0,1 @ F,0,0,1,0,0,0,1 @ F,0,0,1,0,0,0,1 @ F,0,0,1,0,0,0,1 @ F,0,0,1,0,0,0,1 @ F,0,0,1,0,0,0,1 @ F,0,0,1,0,0,0,1 @ F,0,0,1,0,0,0,1 @ F,0,0,1,0,0,0,1 @ F,0,0,1,0,36.085452,0,1 @ F,0,0,1,0,0,0,1 @ F,0,0,1,0,0,0,1 @ F,0,0,1,0,0,0,1 @ F,0,0,1,0,0,0,1 @ F,0,0,1,0,0,0,1 @ F,0,0,1,0,0,0,1 | F,0,0,1,0,0,0,1 @ F,0,0,1,0,0,0,1 @ F,0,0,1,0,0,0,1 @ F,0,0,1,0,0,0,1 | F,0,0,1,0,0,0,1 @ F,0,0,1,0,0,0,1 @ F,0,0,1,0,0,0,1 @ F,0,0,1,0,0,0,1 | F,0,0,1,0,0,0,1 @ F,0,0,1,0,0,0,1 @ F,0,0,1,0,0,0,1 @ F,0,0,1,0,0,0,1 @ F,0,0,1,0,0,0,1 | F,0,0,1,0,0,0,1 @ F,0,0,1,0,0,0,1 @ F,0,0,1,0,0,0,1"
       radius="0"
       unit="px"
       method="auto"
       mode="F"
       chamfer_steps="1"
       flexible="false"
       use_knot_distance="true"
       apply_no_radius="true"
       apply_with_radius="true"
       only_selected="false"
       hide_knots="false" />
  </defs>
  <sodipodi:namedview
     id="namedview1"
     pagecolor="#ffffff"
     bordercolor="#000000"
     borderopacity="0.25"
     inkscape:showpageshadow="2"
     inkscape:pageopacity="0.0"
     inkscape:pagecheckerboard="0"
     inkscape:deskcolor="#d1d1d1"
     inkscape:zoom="0.70710678"
     inkscape:cx="645.58849"
     inkscape:cy="557.90725"
     inkscape:window-width="1920"
     inkscape:window-height="1009"
     inkscape:window-x="-8"
     inkscape:window-y="-8"
     inkscape:window-maximized="1"
     inkscape:current-layer="g1"
     showguides="true" />
  <g
     inkscape:groupmode="layer"
     inkscape:label="Image"
     id="g1">
    <g
       id="g2"
       transform="matrix(1.5738576,0,0,1.5878358,-298.10305,-137.52009)">
      <path
         id="path3"
         style="fill:#013355;fill-opacity:1;image-rendering:optimizeQuality"
         d="m 526.87364,166.35301 c -0.88046,0.0283 -12.90136,0.31014 -27.25976,0.29394 -21.26706,-0.024 -26.39413,-0.50248 -28.75196,0.7168 -11.50119,7.02652 -8.04912,26.21617 -14.75195,41.02149 -3.76561,8.31754 -7.16183,2.70574 -26.94459,11.71235 -22.36419,10.18187 -18.8089,12.01585 -24.82299,12.2271 -5.4491,0.1914 -36.63652,-25.64371 -36.33326,-26.13439 0.21422,-0.34648 -2.18698,-0.47816 -5.33594,-0.29296 -15.4429,2.59047 -48.22656,29.43684 -48.22656,49.26757 0,3.51201 22.30706,24.52219 17.11478,33.41789 -18.47967,28.02189 -22.56254,33.99149 -29.33485,58.06388 -3.87861,13.78663 -43.4021,-4.20949 -45.28786,17.31296 -2.00427,22.87497 -3.61845,41.66648 1.59412,63.71993 4.30438,18.21107 36.70612,1.31963 40.74698,12.55589 3.35139,9.31908 6.84188,34.62479 20.66264,59.32541 0.60302,1.93052 1.07479,3.54791 0.61523,5.47656 -1.45631,6.11419 -15.47811,21.51595 -16.45699,28.09694 -2.32982,15.66337 44.53661,55.97294 55.49172,51.35838 18.09555,-7.62228 28.96406,-22.12304 37.77869,-16.62724 17.76462,11.07599 43.16856,22.12769 64.80275,27.4363 11.01029,2.7017 5.91606,14.10047 9.2311,34.46068 1.79913,11.04981 46.3417,17.55731 75.6192,8.98672 12.03984,-4.9554 -0.1998,-37.45415 11.01511,-42.6013 21.76818,-9.99064 31.71688,-15.33606 49.22113,-24.92378 5.06319,-2.7733 8.39535,-6.58519 36.73517,16.55916 8.57755,7.00504 43.98079,-31.01287 52.68846,-46.94758 4.91539,-8.99498 -29.55607,-31.80269 -27.9409,-34.50694 12.32312,-20.63233 28.46724,-59.72649 25.52925,-88.26463 l -44.0905,-3.81184 c -10.83449,91.36536 -94.74733,142.10335 -173.71441,129.36114 -13.39056,-2.16071 -52.01392,-17.7509 -73.05627,-36.53079 -35.16958,-34.42417 -40.51331,-54.26927 -46.8029,-97.48483 -5.64719,-96.98731 90.847,-188.42094 204.62118,-135.17969 l 6.44727,3.01562 c 8.5394,-28.54574 29.4634,-44.24319 27.39456,-45.87653 -20.59231,-16.25753 -37.68657,-20.06696 -49.19233,-24.70716 -6.09342,-2.45744 -6.60492,-37.92029 -16.69325,-40.60189 z m 42.56458,204.29998 -132.01635,130.12473 c -12.35282,10.15206 19.85838,32.7703 27.29747,25.74814 45.5126,-42.96177 85.75639,-83.20203 133.23122,-131.49523 12.59937,-12.81656 -17.00441,-36.25358 -28.51234,-24.37764 z m -43.297,131.22262 c -0.0397,0.0395 -0.0626,0.0629 -0.10547,0.10547 0.0417,-0.0322 0.0699,-0.0454 0.11133,-0.0762 -0.002,-0.01 -0.004,-0.0195 -0.006,-0.0293 z m 0.3418,0.16211 c 7.5e-4,0.003 -0.005,0.005 -0.004,0.008 0.002,0.004 0.006,0.006 0.008,0.01 0.003,-0.005 0.006,-0.0104 0.01,-0.0156 -0.005,-7.7e-4 -0.009,-9e-4 -0.0137,-0.002 z m -9.58008,9.52344 c -0.0113,0.006 -0.0219,0.0133 -0.0332,0.0195 0.0124,-0.005 0.0249,-0.0106 0.0371,-0.0156 z"
         sodipodi:nodetypes="ccccccccccsssscccccccccccccccssccccccccccccccccccccccccccc" />
      <path
         style="fill:#105d86"
         d="m 468.8503,542.30929 c -15.71341,-4.35781 -30.86955,-11.10366 -44.90969,-19.39681 -7.75502,-4.58069 -20.81412,-15.10155 -21.35656,-16.55309 -0.14643,-0.39186 37.98878,-38.64972 84.74492,-85.01746 76.1081,-75.47586 91.41673,-91.92452 91.38423,-92.33676 -0.0754,-0.95658 3.91908,-6.46998 4.19881,-12.72803 2.22878,-49.8615 12.75413,-55.29135 16.42308,-62.78854 12.04564,-13.98327 25.48659,-25.14563 43.77389,-29.71397 21.3774,-5.87759 39.1422,-3.63005 50.7137,1.46978 2.0816,0.51127 3.0426,2.67455 1.517,4.51273 l -34.3208,34.34554 -17.6686,17.76784 c 26.1024,69.69178 22.3447,46.95107 8.1658,37.05202 -34.5272,-24.10511 -34.941,-24.0775 41.6913,11.73354 1.9629,0.91727 53.0584,-50.73942 52.59,-51.49732 -0.2474,-0.40031 0.7819,-1.04243 1.5516,-0.20446 14.5048,15.79164 -0.2844,129.12687 -100.1237,113.77099 0.5488,0.11255 -6.4654,-1.6811 -12.1196,3.62289 -61.35287,57.55225 -46.58284,42.80164 -151.20337,147.98038 -1.28897,1.29584 -10.17385,-0.66641 -15.05201,-2.01927 z m -7.21788,-18.23039 c 44.24356,-43.24216 88.13807,-86.90526 132.20655,-130.34873 9.41074,-22.80212 -14.15978,-25.35848 -21.68394,-20.64733 -3.44005,2.15395 -125.86429,124.48122 -129.64911,129.54642 -6.16591,8.2518 4.16759,28.11418 19.12652,21.44964 z"
         id="path5"
         sodipodi:nodetypes="aasssscsscccsssssssascssss" />
    </g>
  </g>
</svg>
